<?xml version="1.0" encoding="UTF-8" standalone="no"?>
<svg
   width="48"
   height="48"
   style="enable-background:new 0 0 48 48"
   xml:space="preserve"
   version="1.1"
   id="svg197"
   sodipodi:docname="gas-station.svg"
   inkscape:version="1.2.2 (b0a84865, 2022-12-01)"
   xmlns:inkscape="http://www.inkscape.org/namespaces/inkscape"
   xmlns:sodipodi="http://sodipodi.sourceforge.net/DTD/sodipodi-0.dtd"
   xmlns="http://www.w3.org/2000/svg"
   xmlns:svg="http://www.w3.org/2000/svg"><defs
   id="defs201" /><sodipodi:namedview
   id="namedview199"
   pagecolor="#ffffff"
   bordercolor="#000000"
   borderopacity="0.25"
   inkscape:showpageshadow="2"
   inkscape:pageopacity="0.0"
   inkscape:pagecheckerboard="0"
   inkscape:deskcolor="#d1d1d1"
   showgrid="false"
   inkscape:zoom="0.4609375"
   inkscape:cx="377.49153"
   inkscape:cy="269.01695"
   inkscape:window-width="1512"
   inkscape:window-height="456"
   inkscape:window-x="0"
   inkscape:window-y="38"
   inkscape:window-maximized="0"
   inkscape:current-layer="svg197" />
  <g
   id="g195"
   transform="matrix(0.11851852,0,0,0.09375,-6.3407408,0)">
    <path
   d="m 421,180.863 v -62.057 l -55.7,-55.7 c -5.858,-5.858 -5.858,-15.355 0,-21.213 5.858,-5.858 15.355,-5.858 21.213,0 l 55.7,55.7 A 30,30 0 0 1 451,118.806 v 32.056 z"
   fill="#bdf7f7"
   data-original="#bdf7f7"
   id="path157" />
    <path
   d="M 451,264.501 421,210.863 V 439.5 c 0,8.284 -6.716,15 -15,15 -8.284,0 -15,-6.716 -15,-15 v -115 c 0,-33.137 -26.863,-60 -60,-60 l -30,15 30,15 c 16.569,0 30,13.431 30,30 v 115 c 0,24.853 20.147,45 45,45 24.853,0 45,-20.147 45,-45 z"
   fill="#504b83"
   data-original="#504b83"
   id="path159" />
    <path
   d="m 301,7.5 h -30 v 120 l 60,-60 v -30 c 0,-16.57 -13.43,-30 -30,-30 z"
   fill="#f52314"
   data-original="#f52314"
   id="path161" />
    <path
   d="M 271,7.5 H 106 c -16.57,0 -30,13.43 -30,30 v 30 l 225,75 v -105 c 0,-16.57 -13.43,-30 -30,-30 z"
   fill="#ff4d1c"
   data-original="#ff4d1c"
   id="path163" />
    <path
   d="m 331,324.5 v 165 H 211 l 90,-165 z"
   fill="#f52314"
   data-original="#f52314"
   id="path165" />
    <path
   d="m 76,324.5 h 225 v 165 H 76 Z"
   fill="#ff4d1c"
   data-original="#ff4d1c"
   id="path167" />
    <path
   d="m 331,474.5 h -30 v 30 h 30 c 8.284,0 15,-6.716 15,-15 0,-8.284 -6.716,-15 -15,-15 z"
   fill="#5b3364"
   data-original="#5b3364"
   id="path169" />
    <path
   d="m 316,489.5 c 0,-8.284 -6.716,-15 -15,-15 H 76 c -8.284,0 -15,6.716 -15,15 0,8.284 6.716,15 15,15 h 225 c 8.284,0 15,-6.716 15,-15 z"
   fill="#504b83"
   data-original="#504b83"
   id="path171" />
    <path
   d="M 301,67.5 241,196 301,324.5 h 30 v -257 z"
   fill="#7cf0ee"
   data-original="#7cf0ee"
   id="path173" />
    <path
   d="m 76,67.5 v 257 h 225 v -90 L 211,166 301,97.5 v -30 z"
   fill="#bdf7f7"
   data-original="#bdf7f7"
   id="path175" />
    <path
   d="m 226,264.5 -22.004,15 22.004,15 h 45 v -30 z"
   fill="#5b3364"
   data-original="#5b3364"
   id="path177" />
    <path
   d="m 181,264.5 -22.004,15 22.004,15 h 45 v -30 z"
   fill="#504b83"
   data-original="#504b83"
   id="path179" />
    <path
   d="m 136,264.5 h 45 v 30 h -45 z"
   fill="#4663a2"
   data-original="#4663a2"
   id="path181" />
    <path
   d="m 271,97.5 -60,68.5 60,68.5 h 30 v -137 z"
   fill="#3193e0"
   data-original="#3193e0"
   id="path183" />
    <path
   d="m 106,97.5 h 165 v 137 H 106 Z"
   fill="#26abff"
   data-original="#26abff"
   id="path185" />
    <path
   d="m 421,150.863 -15,15 v 83.638 l 15,15 h 30 V 150.864 Z"
   fill="#f52314"
   data-original="#f52314"
   id="path187" />
    <path
   d="m 406,150.863 c -8.284,0 -15,6.716 -15,15 v 83.638 c 0,8.284 6.716,15 15,15 h 15 V 150.864 Z"
   fill="#ff4d1c"
   data-original="#ff4d1c"
   id="path189" />
    <path
   d="M 308.5,234.5 V 97.5 A 7.5,7.5 0 0 0 301,90 H 106 a 7.5,7.5 0 0 0 -7.5,7.5 v 137 a 7.5,7.5 0 0 0 7.5,7.5 h 195 a 7.5,7.5 0 0 0 7.5,-7.5 z m -15,-7.5 h -180 V 105 h 180 z M 136,257 a 7.5,7.5 0 0 0 -7.5,7.5 v 30 a 7.5,7.5 0 0 0 7.5,7.5 h 135 a 7.5,7.5 0 0 0 7.5,-7.5 v -30 A 7.5,7.5 0 0 0 271,257 Z m 82.5,15 v 15 h -30 v -15 z m -75,0 h 30 v 15 h -30 z m 120,15 h -30 v -15 h 30 z"
   data-original="#000000"
   id="path191" />
    <path
   d="m 447.517,92.291 -55.7,-55.7 c -4.25,-4.25 -9.9,-6.59 -15.91,-6.59 -6.01,0 -11.66,2.341 -15.91,6.59 -8.771,8.773 -8.771,23.046 0,31.819 l 53.504,53.503 v 21.45 h -7.5 c -12.406,0 -22.5,10.093 -22.5,22.5 v 83.638 c 0,12.407 10.094,22.5 22.5,22.5 h 7.5 V 439.5 c 0,4.136 -3.364,7.5 -7.5,7.5 -4.136,0 -7.5,-3.364 -7.5,-7.5 v -115 c 0,-37.22 -30.28,-67.5 -67.5,-67.5 a 7.5,7.5 0 0 0 -7.5,7.5 V 317 h -240 V 75 h 240 v 159.5 c 0,4.142 3.357,7.5 7.5,7.5 4.143,0 7.5,-3.358 7.5,-7.5 V 37.5 C 338.5,16.822 321.678,0 301,0 H 106 C 85.322,0 68.5,16.822 68.5,37.5 v 430.79 c -8.729,3.096 -15,11.432 -15,21.21 0,12.407 10.094,22.5 22.5,22.5 h 255 c 12.406,0 22.5,-10.093 22.5,-22.5 0,-9.777 -6.271,-18.114 -15,-21.21 v -165 c 8.729,3.096 15,11.432 15,21.21 v 115 c 0,28.949 23.552,52.5 52.5,52.5 28.948,0 52.5,-23.551 52.5,-52.5 V 118.807 c 0,-10.016 -3.9,-19.433 -10.983,-26.516 z m -21.213,21.212 -55.7,-55.7 c -2.924,-2.924 -2.924,-7.682 0,-10.606 1.416,-1.417 3.3,-2.197 5.303,-2.197 2.003,0 3.887,0.78 5.303,2.197 l 55.7,55.7 c 4.25,4.25 6.591,9.9 6.591,15.91 v 24.557 h -15 v -24.557 a 7.508,7.508 0 0 0 -2.197,-5.304 z M 398.5,249.501 v -83.638 c 0,-4.135 3.364,-7.5 7.5,-7.5 h 37.5 V 257 H 406 c -4.136,10e-4 -7.5,-3.363 -7.5,-7.499 z M 323.5,332 V 467 H 83.5 V 332 Z M 106,15 h 195 c 12.406,0 22.5,10.093 22.5,22.5 V 60 H 83.5 V 37.5 C 83.5,25.093 93.594,15 106,15 Z M 331,497 H 76 c -4.136,0 -7.5,-3.364 -7.5,-7.5 0,-4.136 3.364,-7.5 7.5,-7.5 h 255 c 4.136,0 7.5,3.364 7.5,7.5 0,4.136 -3.364,7.5 -7.5,7.5 z m 75,-20 c -20.678,0 -37.5,-16.822 -37.5,-37.5 v -115 c 0,-18.11 -12.904,-33.261 -30,-36.745 v -15.22 c 25.408,3.65 45,25.563 45,51.966 v 115 c 0,12.407 10.094,22.5 22.5,22.5 12.406,0 22.5,-10.093 22.5,-22.5 v -167.5 h 15 V 439.5 c 0,20.678 -16.822,37.5 -37.5,37.5 z"
   data-original="#000000"
   id="path193" />
  </g>
</svg>
